<?xml version="1.0" encoding="utf-8"?>
<!-- Generator: Adobe Illustrator 16.0.0, SVG Export Plug-In . SVG Version: 6.00 Build 0)  -->
<!DOCTYPE svg PUBLIC "-//W3C//DTD SVG 1.1//EN" "http://www.w3.org/Graphics/SVG/1.1/DTD/svg11.dtd">
<svg version="1.1" id="Layer_1" xmlns="http://www.w3.org/2000/svg" xmlns:xlink="http://www.w3.org/1999/xlink" x="0px" y="0px"
	 width="657.143px" height="560px" viewBox="0 0 657.143 560" enable-background="new 0 0 657.143 560" xml:space="preserve">
<g>
	<g>
		<g>
			<g>
				<g opacity="0.15">
					<path fill-rule="evenodd" clip-rule="evenodd" d="M356.12,91.19l135.568-40.056c19.7-5.821,40.395,5.433,46.217,25.135
						l107.519,363.895c5.822,19.706-5.434,40.399-25.135,46.221L484.721,526.44c-19.705,5.822-40.396-5.432-46.22-25.135
						L330.983,137.408C325.162,117.705,336.415,97.012,356.12,91.19z"/>
				</g>
				<g>
					<g>
						<path fill-rule="evenodd" clip-rule="evenodd" fill="#090F02" d="M349.12,84.19l135.568-40.056
							c19.7-5.821,40.395,5.433,46.217,25.135l107.519,363.895c5.822,19.706-5.434,40.399-25.135,46.221L477.721,519.44
							c-19.705,5.822-40.396-5.432-46.22-25.135L323.983,130.408C318.162,110.705,329.415,90.012,349.12,84.19z"/>
					</g>
				</g>
			</g>
			<path fill="#FFFFFF" stroke="#000000" stroke-miterlimit="10" d="M397.583,100.518c2.168-0.64,4.443,0.597,5.084,2.764
				c0.64,2.168-0.598,4.444-2.766,5.084c-2.167,0.641-4.444-0.597-5.085-2.765C394.176,103.434,395.416,101.158,397.583,100.518z"/>
			<path fill="#FFFFFF" stroke="#000000" stroke-miterlimit="10" d="M413.639,95.774l39.246-11.596
				c2.166-0.64,4.435,0.598,5.074,2.765c0.641,2.168-0.589,4.442-2.756,5.082l-39.246,11.596c-2.169,0.641-4.445-0.597-5.085-2.765
				C410.232,98.69,411.469,96.415,413.639,95.774z"/>
			<path fill="#FFFFFF" stroke="#000000" stroke-miterlimit="10" d="M531.182,450.948c8.987-2.655,18.42,2.472,21.075,11.459
				c2.652,8.981-2.476,18.419-11.462,21.073c-8.979,2.652-18.418-2.48-21.071-11.461
				C517.07,463.032,522.203,453.602,531.182,450.948z"/>
			<path fill="#FFFFFF" stroke="#000000" stroke-miterlimit="10" d="M437.338,461.547l-91.707-310.381L524.015,98.46l91.707,310.38
				L437.338,461.547z"/>
		</g>
		<g>
			<path fill-rule="evenodd" clip-rule="evenodd" fill="#D04546" d="M461.274,214.338c-28.724,8.21-44.35,24.245-44.35,24.245
				l18.235,61.716c0,0,6.015,10.646,22.582,19.083c15.159,7.721,37.504,9.934,37.504,9.934s17.556-14.001,26.084-28.72
				c9.32-16.088,8.586-28.293,8.586-28.293l-18.235-61.717C511.68,210.586,489.848,205.619,461.274,214.338z"/>
			<polygon fill="#FFFFFF" stroke="#000000" stroke-miterlimit="10" points="440.522,265.578 445.931,283.885 484.321,302.4 
				507.978,248.966 501.396,226.691 477.647,281.812 			"/>
		</g>
	</g>
	<g>
		<rect x="21.798" y="228.784" fill-rule="evenodd" clip-rule="evenodd" fill="none" width="237.825" height="80.925"/>
		
			<text transform="matrix(1 0 0 1 21.7983 299.7832)" fill="#D04546" font-family="'Norwester-Regular'" font-size="100" letter-spacing="5">24/7</text>
		<g>
			<path fill="#090F02" d="M67.31,198.056c0,0,0.354-1.64,1.017-4.714c0.339-1.537,0.724-3.434,1.238-5.66
				c0.582-2.227,1.25-4.787,1.998-7.653c0.353-1.446,0.803-2.938,1.292-4.496c0.48-1.563,0.984-3.199,1.508-4.905
				c0.271-0.85,0.523-1.728,0.826-2.604c0.313-0.874,0.632-1.765,0.957-2.672c0.651-1.816,1.325-3.699,2.021-5.643
				c3.011-7.685,6.538-16.363,11.329-25.384c4.727-9.043,10.318-18.649,17.115-28.241c6.769-9.607,14.675-19.228,23.593-28.516
				c8.925-9.278,18.881-18.224,29.798-26.306c10.892-8.111,22.655-15.463,34.985-21.783c12.323-6.329,25.151-11.765,38.172-16.098
				c13.013-4.345,26.26-7.472,39.267-9.129c13.012-1.667,25.726-1.919,37.697-1.008c1.438,0.094,2.866,0.188,4.284,0.28
				c1.426,0.102,2.793,0.175,4.3,0.393c2.938,0.375,5.833,0.746,8.678,1.109c1.415,0.2,2.818,0.399,4.208,0.596
				c1.356,0.266,2.702,0.529,4.034,0.791c2.664,0.513,5.268,1.051,7.812,1.581c5.076,1.142,9.86,2.591,14.415,3.812
				c2.257,0.709,4.426,1.506,6.543,2.222c2.115,0.724,4.16,1.442,6.134,2.153c3.908,1.552,7.505,3.148,10.829,4.569
				c0.828,0.363,1.646,0.699,2.425,1.087c0.775,0.393,1.534,0.777,2.276,1.153c1.475,0.758,2.882,1.48,4.217,2.167
				c2.659,1.38,5.029,2.591,6.998,3.853c1.992,1.204,3.677,2.229,5.023,3.095c2.709,1.696,4.121,2.637,4.121,2.637l-0.852,1.81
				c0,0-1.657-0.404-4.705-1.23c-1.531-0.396-3.396-0.926-5.577-1.551c-2.157-0.682-4.746-1.175-7.566-1.883
				c-1.411-0.344-2.896-0.707-4.456-1.087c-0.774-0.193-1.568-0.391-2.379-0.594c-0.81-0.202-1.665-0.326-2.516-0.511
				c-3.404-0.69-7.086-1.437-11.021-2.234c-3.973-0.586-8.149-1.327-12.554-2.014c-2.216-0.258-4.488-0.523-6.815-0.795
				c-1.157-0.143-2.329-0.287-3.513-0.433c-1.182-0.157-2.375-0.313-3.596-0.372c-2.435-0.167-4.913-0.341-7.429-0.554
				c-1.258-0.102-2.527-0.205-3.808-0.309c-1.263-0.033-2.537-0.065-3.822-0.098c-2.555-0.089-5.154-0.179-7.793-0.271
				c-1.278-0.084-2.733-0.008-4.146-0.001c-1.421,0.014-2.852,0.028-4.293,0.042c-11.049,0.073-22.697,0.833-34.629,2.281
				c-11.938,1.416-24.236,3.412-36.565,6.438c-12.324,3.024-24.625,7.189-36.446,12.516c-11.819,5.325-23.211,11.665-33.865,18.793
				c-10.638,7.148-20.62,14.972-29.647,23.283c-9.045,8.295-17.11,17.07-24.26,25.823c-7.157,8.757-13.182,17.644-18.363,26.086
				c-5.233,8.424-9.343,16.563-12.837,23.855c-3.365,7.348-6.019,13.914-8.031,19.366c-0.967,2.742-1.83,5.19-2.582,7.321
				c-0.694,2.165-1.239,4.031-1.704,5.532c-0.917,3.008-1.406,4.612-1.406,4.612L67.31,198.056z"/>
			<path fill="#090F02" d="M395.799,489.729l-131.173-55.994l2.297,48.789c-3.69-0.637-7.408-1.311-11.168-2.066
				c-10.324-2.13-20.947-4.646-31.587-7.933c-10.634-3.286-21.225-7.459-31.401-12.537c-10.173-5.077-20.004-10.909-29.205-17.372
				c-9.192-6.472-17.875-13.41-25.795-20.695c-7.917-7.285-15.134-14.848-21.499-22.447c-6.349-7.609-11.982-15.15-16.758-22.414
				c-1.242-1.786-2.295-3.635-3.426-5.385c-1.094-1.771-2.235-3.463-3.19-5.201c-1.966-3.446-3.917-6.683-5.502-9.853
				c-0.823-1.572-1.62-3.094-2.389-4.562c-0.758-1.476-1.407-2.937-2.076-4.32c-1.329-2.773-2.574-5.316-3.542-7.68
				c-1.005-2.349-1.929-4.439-2.689-6.276c-0.713-1.856-1.319-3.436-1.811-4.715c-0.985-2.565-1.51-3.933-1.51-3.933l-1.911,0.588
				c0,0,0.396,1.424,1.139,4.092c0.372,1.336,0.831,2.984,1.371,4.923c0.589,1.923,1.318,4.116,2.108,6.588
				c0.755,2.485,1.758,5.175,2.848,8.111c0.557,1.462,1.091,3.006,1.731,4.57c0.653,1.561,1.33,3.178,2.028,4.849
				c2.785,6.693,6.339,14.083,10.626,21.946c4.322,7.847,9.514,16.077,15.48,24.484c1.533,2.073,3.087,4.175,4.661,6.303
				c1.66,2.063,3.34,4.152,5.038,6.264l1.285,1.585l1.348,1.544c0.902,1.033,1.809,2.071,2.719,3.113
				c0.921,1.034,1.808,2.113,2.771,3.125c0.96,1.018,1.925,2.039,2.894,3.065c7.762,8.199,16.339,16.203,25.711,23.557
				c9.34,7.395,19.42,14.193,29.962,20.235c10.536,6.05,21.476,11.469,32.6,16.063c11.118,4.603,22.467,8.278,33.71,10.715
				c5.54,1.159,11.021,2.031,16.418,2.663l2.555,54.276L395.799,489.729z"/>
		</g>
	</g>
</g>
</svg>
