<?xml version="1.0" encoding="utf-8"?>
<!-- Generator: Adobe Illustrator 16.0.0, SVG Export Plug-In . SVG Version: 6.00 Build 0)  -->
<!DOCTYPE svg PUBLIC "-//W3C//DTD SVG 1.1//EN" "http://www.w3.org/Graphics/SVG/1.1/DTD/svg11.dtd">
<svg version="1.1" id="Capa_1" xmlns="http://www.w3.org/2000/svg" xmlns:xlink="http://www.w3.org/1999/xlink" x="0px" y="0px"
	 width="241.02px" height="321.083px" viewBox="96.604 29.848 241.02 321.083"
	 enable-background="new 96.604 29.848 241.02 321.083" xml:space="preserve">
<g>
	<rect x="2" y="-31" fill="none" width="425.197" height="425.196"/>
</g>
<g>
	<g>
		<path fill="#DDD6D5" d="M337.622,49.746c0,0-53.965-19.898-120.53-19.898c-66.571,0-120.536,19.898-120.536,19.898
			s0.601,42.906,0.01,114.618c-0.584,71.714,21.168,109.33,21.168,109.33c31.738,51.729,99.337,77.236,99.337,77.236
			s67.599-25.509,99.334-77.236c0,0,21.753-37.616,21.171-109.33c-0.593-71.712,0.008-114.618,0.008-114.618H337.622z"/>
		<path fill="#D14646" d="M217.172,172.964v174.896h7.2c18.322-8.19,66.648-32.789,92.031-74.165c0,0,19.996-34.625,21.121-100.729
			L217.172,172.964L217.172,172.964z"/>
		<path fill="#D14646" d="M221.46,176.482v145.702h5.655c14.413-6.822,52.421-27.313,72.378-61.782c0,0,15.727-28.848,16.607-83.919
			H221.46z"/>
		<path fill="#0D050D" d="M217.092,172.964H96.616c1.117,66.105,21.117,100.73,21.117,100.73
			c25.384,41.375,73.704,65.974,92.033,74.164h7.325L217.092,172.964L217.092,172.964z"/>
		<path fill="#D14646" d="M96.565,164.364c-0.021,2.932,0.008,5.781,0.051,8.6h120.476V29.848
			c-66.571,0-120.536,19.898-120.536,19.898S97.156,92.652,96.565,164.364z"/>
		<path fill="#0D050D" d="M217.172,172.964h120.353c0.041-2.818,0.067-5.668,0.052-8.6c-0.593-71.712,0.008-114.618,0.008-114.618
			h0.039c0,0-53.917-19.884-120.45-19.898L217.172,172.964L217.172,172.964z"/>
		<path fill="#160F16" d="M214.556,177.677h-98.724c0.917,54.168,17.302,82.542,17.302,82.542
			c20.805,33.902,60.397,54.058,75.42,60.772h6.001V177.677z"/>
		<path fill="#D14646" d="M116.518,162.201c-0.017,2.365,0.005,4.67,0.043,6.945h97.313V53.536
			c-53.775,0-97.364,16.077-97.364,16.077S116.993,104.274,116.518,162.201z"/>
		<path fill="#160F16" d="M221.396,168.047h97.854c0.035-2.291,0.062-4.608,0.035-6.986c-0.476-58.31,0.019-93.196,0.019-93.196
			h0.028c0,0-43.842-16.164-97.937-16.179V168.047z"/>
		<path fill="#B5AC9F" d="M337.622,49.746c0,0-53.965-19.898-120.53-19.898c-66.571,0-120.536,19.898-120.536,19.898
			s0.601,42.906,0.01,114.618c-0.584,71.714,21.168,109.33,21.168,109.33c31.738,51.729,99.337,77.236,99.337,77.236
			s67.599-25.509,99.334-77.236c0,0,21.753-37.616,21.171-109.33c-0.593-71.712,0.008-114.618,0.008-114.618H337.622z
			 M322.218,64.25c0,0-0.521,40.865-0.012,103.435c0.514,62.567-18.457,95.39-18.457,95.39
			c-27.698,45.135-86.674,67.39-86.674,67.39s-58.981-22.255-86.675-67.39c0,0-18.976-32.822-18.461-95.39
			c0.509-62.569-0.018-103.435-0.018-103.435s47.083-17.359,105.17-17.359c58.08,0,105.165,17.359,105.165,17.359H322.218z"/>
		<g>
			<path fill="#6D605E" d="M148.182,285.533c-6.605-6.728-12.714-14.205-17.781-22.459c0,0-18.976-32.822-18.461-95.39
				c0.509-62.569-0.018-103.435-0.018-103.435s47.083-17.359,105.17-17.359c52.058,0,95.253,13.938,103.657,16.833
				c0.009-0.602,0.014-0.933,0.014-0.933h0.029c0,0-47.081-17.358-105.161-17.358c-58.082,0-105.167,17.358-105.167,17.358
				s0.528,40.869,0.014,103.436s18.463,95.393,18.463,95.393C134.376,270.474,141.021,278.436,148.182,285.533z"/>
			<path fill="#6D605E" d="M337.622,49.746c0,0-0.527-0.197-1.514-0.536c-0.075,6.502-0.533,48.001,0,113.696
				c0.594,71.713-21.155,109.333-21.155,109.333c-31.745,51.728-99.341,77.235-99.341,77.235s-43.627-16.467-77.24-49.762
				c33.798,34.272,78.697,51.218,78.697,51.218s67.6-25.509,99.334-77.236c0,0,21.754-37.616,21.172-109.33
				c-0.592-71.712,0.008-114.618,0.008-114.618H337.622z"/>
		</g>
		<g>
			<g>
				<g>
					<path fill="#DFCFC4" d="M323.901,65.904c0,0-0.596-0.221-1.695-0.598c-0.078,6.773-0.463,45.656,0,102.378
						c0.514,62.567-18.457,95.39-18.457,95.39c-27.698,45.135-86.674,67.39-86.674,67.39s-37.992-14.354-67.309-43.347
						c29.522,30.106,68.958,44.996,68.958,44.996s58.984-22.255,86.672-67.388c0,0,18.977-32.822,18.467-95.388
						c-0.514-62.571,0.01-103.435,0.01-103.435L323.901,65.904L323.901,65.904z"/>
				</g>
				<g>
					<path fill="#DFCFC4" d="M119.383,275.353c0,0-21.747-37.623-21.165-109.336c0.592-71.709-0.009-114.62-0.009-114.62
						S152.175,31.5,218.749,31.5c59.695,0,109.227,15.993,118.816,19.296c0.01-0.688,0.018-1.049,0.018-1.049h0.039
						c0,0-53.965-19.898-120.53-19.898c-66.571,0-120.536,19.898-120.536,19.898s0.601,42.906,0.01,114.618
						c-0.584,71.714,21.168,109.329,21.168,109.329c6.279,10.239,13.961,19.441,22.25,27.626
						C132.333,293.556,125.242,284.9,119.383,275.353z"/>
				</g>
			</g>
		</g>
		<g>
			<g>
				<g>
					<circle fill="#6D605E" cx="106.276" cy="56.499" r="2.492"/>
				</g>
				<g>
					<circle fill="#6D605E" cx="106.276" cy="81.938" r="2.492"/>
				</g>
				<g>
					<circle fill="#6D605E" cx="106.276" cy="107.373" r="2.491"/>
				</g>
				<g>
					<path fill="#6D605E" d="M106.276,135.304c1.374,0,2.492-1.114,2.492-2.494c0-1.373-1.118-2.49-2.492-2.49
						c-1.377,0-2.489,1.118-2.489,2.49C103.787,134.189,104.899,135.304,106.276,135.304z"/>
				</g>
				<g>
					<path fill="#6D605E" d="M106.276,160.744c1.374,0,2.492-1.116,2.492-2.49c0-1.38-1.118-2.493-2.492-2.493
						c-1.377,0-2.489,1.112-2.489,2.493C103.787,159.628,104.899,160.744,106.276,160.744z"/>
				</g>
				<g>
					<circle fill="#6D605E" cx="106.278" cy="183.69" r="2.491"/>
				</g>
				<g>
					<path fill="#6D605E" d="M108.328,206.636c-1.38,0-2.493,1.119-2.493,2.49c0,1.378,1.113,2.492,2.493,2.492
						c1.378,0,2.488-1.114,2.488-2.492C110.816,207.755,109.706,206.636,108.328,206.636z"/>
				</g>
				<g>
					<path fill="#6D605E" d="M113.309,232.074c-1.379,0-2.492,1.116-2.492,2.489c0,1.377,1.113,2.49,2.492,2.49
						c1.372,0,2.493-1.113,2.493-2.49C115.802,233.19,114.681,232.074,113.309,232.074z"/>
				</g>
				<g>
					<circle fill="#6D605E" cx="120.95" cy="260.003" r="2.493"/>
				</g>
				<g>
					<path fill="#6D605E" d="M137.489,282.952c-1.375,0-2.483,1.112-2.483,2.491c0,1.378,1.108,2.491,2.483,2.491
						c1.38,0,2.494-1.113,2.494-2.491C139.983,284.064,138.869,282.952,137.489,282.952z"/>
				</g>
				<g>
					<circle fill="#6D605E" cx="164.722" cy="310.881" r="2.491"/>
				</g>
				<g>
					<path fill="#6D605E" d="M217.995,338.129c-1.371,0-2.489,1.114-2.489,2.49c0,1.375,1.118,2.49,2.489,2.49
						c1.375,0,2.492-1.115,2.492-2.49C220.487,339.243,219.37,338.129,217.995,338.129z"/>
				</g>
				<g>
					<path fill="#6D605E" d="M188.062,323.59c-1.375,0-2.488,1.113-2.488,2.494c0,1.374,1.113,2.491,2.488,2.491
						c1.379,0,2.497-1.117,2.497-2.491C190.559,324.703,189.44,323.59,188.062,323.59z"/>
				</g>
				<g>
					<path fill="#6D605E" d="M329.716,79.445c-1.381,0-2.49,1.113-2.49,2.492c0,1.375,1.109,2.493,2.49,2.493
						c1.373,0,2.488-1.117,2.488-2.493C332.204,80.559,331.089,79.445,329.716,79.445z"/>
				</g>
				<g>
					<path fill="#6D605E" d="M329.716,104.881c-1.381,0-2.49,1.117-2.49,2.492c0,1.378,1.109,2.491,2.49,2.491
						c1.373,0,2.488-1.113,2.488-2.491C332.204,105.998,331.089,104.881,329.716,104.881z"/>
				</g>
				<g>
					<path fill="#6D605E" d="M329.716,130.32c-1.381,0-2.49,1.118-2.49,2.49c0,1.379,1.109,2.494,2.49,2.494
						c1.373,0,2.488-1.114,2.488-2.494C332.204,131.438,331.089,130.32,329.716,130.32z"/>
				</g>
				<g>
					<path fill="#6D605E" d="M329.716,155.761c-1.381,0-2.49,1.112-2.49,2.493c0,1.374,1.109,2.49,2.49,2.49
						c1.373,0,2.488-1.116,2.488-2.49C332.204,156.874,331.089,155.761,329.716,155.761z"/>
				</g>
				<g>
					<path fill="#6D605E" d="M329.716,181.199c-1.381,0-2.49,1.114-2.49,2.491c0,1.375,1.109,2.492,2.49,2.492
						c1.373,0,2.488-1.117,2.488-2.492C332.204,182.313,331.089,181.199,329.716,181.199z"/>
				</g>
				<g>
					<path fill="#6D605E" d="M327.663,206.636c-1.376,0-2.484,1.119-2.484,2.49c0,1.378,1.108,2.492,2.484,2.492
						c1.379,0,2.488-1.114,2.488-2.492C330.151,207.755,329.042,206.636,327.663,206.636z"/>
				</g>
				<g>
					<path fill="#6D605E" d="M322.687,232.074c-1.379,0-2.494,1.116-2.494,2.489c0,1.377,1.115,2.49,2.494,2.49
						c1.369,0,2.492-1.113,2.492-2.49C325.179,233.19,324.056,232.074,322.687,232.074z"/>
				</g>
				<g>
					<path fill="#6D605E" d="M315.04,257.511c-1.38,0-2.489,1.116-2.489,2.492s1.109,2.493,2.489,2.493
						c1.374,0,2.482-1.117,2.482-2.493S316.414,257.511,315.04,257.511z"/>
				</g>
				<g>
					<path fill="#6D605E" d="M298.5,282.952c-1.379,0-2.493,1.112-2.493,2.491c0,1.378,1.114,2.491,2.493,2.491
						s2.493-1.113,2.493-2.491C300.993,284.064,299.879,282.952,298.5,282.952z"/>
				</g>
				<g>
					<path fill="#6D605E" d="M271.274,308.39c-1.381,0-2.494,1.116-2.494,2.49c0,1.378,1.113,2.492,2.494,2.492
						c1.369,0,2.488-1.114,2.488-2.492C273.765,309.506,272.646,308.39,271.274,308.39z"/>
				</g>
				<g>
					<path fill="#6D605E" d="M247.924,323.59c-1.375,0-2.487,1.113-2.487,2.494c0,1.374,1.112,2.491,2.487,2.491
						c1.376,0,2.497-1.117,2.497-2.491C250.421,324.703,249.3,323.59,247.924,323.59z"/>
				</g>
				<g>
					<path fill="#6D605E" d="M132.315,46.431c-1.374,0-2.493,1.12-2.493,2.496c0,1.374,1.119,2.491,2.493,2.491
						c1.379,0,2.492-1.117,2.492-2.491C134.808,47.55,133.694,46.431,132.315,46.431z"/>
				</g>
				<g>
					<path fill="#6D605E" d="M159.499,40.676c-1.371,0-2.488,1.116-2.488,2.49c0,1.378,1.117,2.493,2.488,2.493
						c1.375,0,2.496-1.115,2.496-2.493C161.995,41.792,160.874,40.676,159.499,40.676z"/>
				</g>
				<g>
					<path fill="#6D605E" d="M188.456,36.471c-1.371,0-2.493,1.114-2.493,2.489c0,1.377,1.122,2.489,2.493,2.489
						c1.379,0,2.492-1.112,2.492-2.489C190.948,37.585,189.835,36.471,188.456,36.471z"/>
				</g>
				<g>
					<path fill="#6D605E" d="M217.995,35.695c-1.371,0-2.489,1.115-2.489,2.487c0,1.379,1.118,2.493,2.489,2.493
						c1.375,0,2.492-1.114,2.492-2.493C220.487,36.811,219.37,35.695,217.995,35.695z"/>
				</g>
				<g>
					<path fill="#6D605E" d="M329.716,58.991c1.373,0,2.488-1.117,2.488-2.494c0-1.375-1.115-2.49-2.488-2.49
						c-1.381,0-2.49,1.115-2.49,2.49C327.226,57.874,328.335,58.991,329.716,58.991z"/>
				</g>
				<g>
					<path fill="#6D605E" d="M303.671,46.431c-1.374,0-2.484,1.12-2.484,2.496c0,1.374,1.11,2.491,2.484,2.491
						c1.379,0,2.493-1.117,2.493-2.491C306.164,47.55,305.05,46.431,303.671,46.431z"/>
				</g>
				<g>
					<circle fill="#6D605E" cx="276.491" cy="43.167" r="2.492"/>
				</g>
				<g>
					<path fill="#6D605E" d="M247.535,41.449c1.379,0,2.487-1.112,2.487-2.489c0-1.375-1.108-2.489-2.487-2.489
						c-1.382,0-2.493,1.114-2.493,2.489C245.042,40.337,246.153,41.449,247.535,41.449z"/>
				</g>
			</g>
		</g>
		<g>
			<g>
				<g>
					<circle fill="#DFCFC4" cx="104.648" cy="55.141" r="2.491"/>
				</g>
				<g>
					<circle fill="#DFCFC4" cx="104.648" cy="80.58" r="2.491"/>
				</g>
				<g>
					<circle fill="#DFCFC4" cx="104.648" cy="106.018" r="2.492"/>
				</g>
				<g>
					<path fill="#DFCFC4" d="M104.648,133.948c1.374,0,2.488-1.115,2.488-2.49c0-1.379-1.114-2.494-2.488-2.494
						c-1.376,0-2.489,1.114-2.489,2.494C102.159,132.833,103.272,133.948,104.648,133.948z"/>
				</g>
				<g>
					<circle fill="#DFCFC4" cx="104.648" cy="156.895" r="2.491"/>
				</g>
				<g>
					<path fill="#DFCFC4" d="M107.137,182.334c0-1.379-1.114-2.492-2.488-2.492c-1.376,0-2.489,1.113-2.489,2.492
						c0,1.371,1.113,2.49,2.489,2.49C106.022,184.824,107.137,183.705,107.137,182.334z"/>
				</g>
				<g>
					<path fill="#DFCFC4" d="M106.695,205.28c-1.375,0-2.485,1.113-2.485,2.49c0,1.375,1.11,2.492,2.485,2.492
						c1.38,0,2.497-1.117,2.497-2.492C109.192,206.394,108.075,205.28,106.695,205.28z"/>
				</g>
				<g>
					<path fill="#DFCFC4" d="M111.678,230.716c-1.376,0-2.485,1.119-2.485,2.493c0,1.375,1.109,2.49,2.485,2.49
						c1.379,0,2.488-1.115,2.488-2.49C114.166,231.835,113.057,230.716,111.678,230.716z"/>
				</g>
				<g>
					<path fill="#DFCFC4" d="M119.323,256.156c-1.374,0-2.488,1.114-2.488,2.491c0,1.379,1.114,2.49,2.488,2.49
						c1.379,0,2.489-1.111,2.489-2.49C121.812,257.271,120.702,256.156,119.323,256.156z"/>
				</g>
				<g>
					<path fill="#DFCFC4" d="M135.861,281.596c-1.371,0-2.487,1.111-2.487,2.492c0,1.375,1.116,2.49,2.487,2.49
						c1.379,0,2.493-1.115,2.493-2.49C138.354,282.707,137.24,281.596,135.861,281.596z"/>
				</g>
				<g>
					<path fill="#DFCFC4" d="M163.089,307.034c-1.372,0-2.484,1.114-2.484,2.491c0,1.375,1.112,2.489,2.484,2.489
						c1.379,0,2.492-1.114,2.492-2.489C165.581,308.148,164.468,307.034,163.089,307.034z"/>
				</g>
				<g>
					<path fill="#DFCFC4" d="M216.371,336.768c-1.384,0-2.497,1.121-2.497,2.494c0,1.377,1.113,2.491,2.497,2.491
						c1.366,0,2.489-1.114,2.489-2.491C218.86,337.889,217.737,336.768,216.371,336.768z"/>
				</g>
				<g>
					<path fill="#DFCFC4" d="M186.434,322.232c-1.374,0-2.484,1.114-2.484,2.491c0,1.373,1.11,2.494,2.484,2.494
						c1.38,0,2.493-1.121,2.493-2.494C188.927,323.348,187.813,322.232,186.434,322.232z"/>
				</g>
				<g>
					<path fill="#DFCFC4" d="M328.083,78.089c-1.375,0-2.489,1.113-2.489,2.49c0,1.375,1.114,2.492,2.489,2.492
						c1.379,0,2.493-1.117,2.493-2.492C330.576,79.202,329.462,78.089,328.083,78.089z"/>
				</g>
				<g>
					<path fill="#DFCFC4" d="M328.083,103.526c-1.375,0-2.489,1.116-2.489,2.491s1.114,2.493,2.489,2.493
						c1.379,0,2.493-1.118,2.493-2.493S329.462,103.526,328.083,103.526z"/>
				</g>
				<g>
					<path fill="#DFCFC4" d="M328.083,128.964c-1.375,0-2.489,1.114-2.489,2.494c0,1.375,1.114,2.49,2.489,2.49
						c1.379,0,2.493-1.115,2.493-2.49C330.576,130.078,329.462,128.964,328.083,128.964z"/>
				</g>
				<g>
					<path fill="#DFCFC4" d="M328.083,154.403c-1.375,0-2.489,1.116-2.489,2.493c0,1.376,1.114,2.49,2.489,2.49
						c1.379,0,2.493-1.114,2.493-2.49C330.576,155.519,329.462,154.403,328.083,154.403z"/>
				</g>
				<g>
					<path fill="#DFCFC4" d="M328.083,179.842c-1.375,0-2.489,1.113-2.489,2.492c0,1.371,1.114,2.49,2.489,2.49
						c1.379,0,2.493-1.119,2.493-2.49C330.576,180.955,329.462,179.842,328.083,179.842z"/>
				</g>
				<g>
					<path fill="#DFCFC4" d="M326.035,205.28c-1.38,0-2.489,1.113-2.489,2.49c0,1.375,1.109,2.492,2.489,2.492
						c1.374,0,2.493-1.117,2.493-2.492C328.528,206.394,327.409,205.28,326.035,205.28z"/>
				</g>
				<g>
					<path fill="#DFCFC4" d="M321.058,230.716c-1.379,0-2.496,1.119-2.496,2.493c0,1.375,1.117,2.49,2.496,2.49
						c1.371,0,2.488-1.115,2.488-2.49C323.546,231.835,322.429,230.716,321.058,230.716z"/>
				</g>
				<g>
					<path fill="#DFCFC4" d="M313.411,256.156c-1.374,0-2.496,1.114-2.496,2.491c0,1.379,1.122,2.49,2.496,2.49
						c1.376,0,2.488-1.111,2.488-2.49C315.899,257.271,314.787,256.156,313.411,256.156z"/>
				</g>
				<g>
					<path fill="#DFCFC4" d="M296.872,281.596c-1.379,0-2.492,1.111-2.492,2.492c0,1.375,1.113,2.49,2.492,2.49
						c1.371,0,2.493-1.115,2.493-2.49C299.365,282.707,298.243,281.596,296.872,281.596z"/>
				</g>
				<g>
					<path fill="#DFCFC4" d="M269.638,307.034c-1.369,0-2.488,1.114-2.488,2.491c0,1.375,1.119,2.489,2.488,2.489
						c1.379,0,2.502-1.114,2.502-2.489C272.14,308.148,271.017,307.034,269.638,307.034z"/>
				</g>
				<g>
					<path fill="#DFCFC4" d="M246.297,322.232c-1.376,0-2.493,1.114-2.493,2.491c0,1.373,1.117,2.494,2.493,2.494
						c1.374,0,2.493-1.121,2.493-2.494C248.79,323.348,247.671,322.232,246.297,322.232z"/>
				</g>
				<g>
					<path fill="#DFCFC4" d="M130.688,45.079c-1.379,0-2.489,1.113-2.489,2.492c0,1.374,1.11,2.49,2.489,2.49
						c1.376,0,2.493-1.117,2.493-2.49C133.181,46.192,132.063,45.079,130.688,45.079z"/>
				</g>
				<g>
					<path fill="#DFCFC4" d="M157.876,39.32c-1.38,0-2.494,1.114-2.494,2.487c0,1.381,1.114,2.494,2.494,2.494
						c1.374,0,2.483-1.113,2.483-2.494C160.359,40.435,159.25,39.32,157.876,39.32z"/>
				</g>
				<g>
					<path fill="#DFCFC4" d="M186.828,35.111c-1.376,0-2.493,1.117-2.493,2.491c0,1.376,1.117,2.494,2.493,2.494
						c1.374,0,2.493-1.117,2.493-2.494C189.321,36.229,188.202,35.111,186.828,35.111z"/>
				</g>
				<g>
					<path fill="#DFCFC4" d="M216.371,34.337c-1.384,0-2.497,1.115-2.497,2.49c0,1.377,1.113,2.493,2.497,2.493
						c1.366,0,2.489-1.116,2.489-2.493C218.86,35.452,217.737,34.337,216.371,34.337z"/>
				</g>
				<g>
					<circle fill="#DFCFC4" cx="328.083" cy="55.141" r="2.491"/>
				</g>
				<g>
					<path fill="#DFCFC4" d="M302.043,45.079c-1.372,0-2.483,1.113-2.483,2.492c0,1.374,1.111,2.49,2.483,2.49
						c1.379,0,2.493-1.117,2.493-2.49C304.536,46.192,303.422,45.079,302.043,45.079z"/>
				</g>
				<g>
					<path fill="#DFCFC4" d="M274.864,39.32c-1.381,0-2.494,1.114-2.494,2.487c0,1.381,1.113,2.494,2.494,2.494
						c1.369,0,2.488-1.113,2.488-2.494C277.353,40.435,276.233,39.32,274.864,39.32z"/>
				</g>
				<g>
					<path fill="#DFCFC4" d="M245.901,40.096c1.38,0,2.498-1.117,2.498-2.494c0-1.374-1.118-2.491-2.498-2.491
						c-1.375,0-2.488,1.117-2.488,2.491C243.413,38.979,244.526,40.096,245.901,40.096z"/>
				</g>
			</g>
		</g>
		<g>
			<g>
				<g>
					<path fill="#8F887E" d="M105.372,58.265c1.374,0,2.498-1.114,2.498-2.493c0-1.371-1.124-2.49-2.498-2.49
						c-1.375,0-2.489,1.119-2.489,2.49C102.883,57.15,103.997,58.265,105.372,58.265z"/>
				</g>
				<g>
					<path fill="#8F887E" d="M105.372,83.701c1.374,0,2.498-1.111,2.498-2.487c0-1.377-1.124-2.491-2.498-2.491
						c-1.375,0-2.489,1.114-2.489,2.491C102.883,82.59,103.997,83.701,105.372,83.701z"/>
				</g>
				<g>
					<path fill="#8F887E" d="M105.372,109.142c1.374,0,2.498-1.116,2.498-2.491s-1.124-2.493-2.498-2.493
						c-1.375,0-2.489,1.118-2.489,2.493S103.997,109.142,105.372,109.142z"/>
				</g>
				<g>
					<path fill="#8F887E" d="M105.372,134.583c1.374,0,2.498-1.118,2.498-2.491c0-1.384-1.124-2.495-2.498-2.495
						c-1.375,0-2.489,1.111-2.489,2.495C102.883,133.465,103.997,134.583,105.372,134.583z"/>
				</g>
				<g>
					<path fill="#8F887E" d="M105.372,160.019c1.374,0,2.498-1.114,2.498-2.492c0-1.374-1.124-2.49-2.498-2.49
						c-1.375,0-2.489,1.116-2.489,2.49C102.883,158.904,103.997,160.019,105.372,160.019z"/>
				</g>
				<g>
					<path fill="#8F887E" d="M107.87,182.965c0-1.372-1.124-2.49-2.498-2.49c-1.375,0-2.489,1.118-2.489,2.49
						c0,1.377,1.114,2.493,2.489,2.493C106.746,185.458,107.87,184.342,107.87,182.965z"/>
				</g>
				<g>
					<path fill="#8F887E" d="M107.419,205.913c-1.371,0-2.489,1.111-2.489,2.493c0,1.37,1.118,2.487,2.489,2.487
						c1.376,0,2.492-1.117,2.492-2.487C109.911,207.024,108.795,205.913,107.419,205.913z"/>
				</g>
				<g>
					<path fill="#8F887E" d="M112.4,231.353c-1.374,0-2.489,1.113-2.489,2.488c0,1.378,1.115,2.493,2.489,2.493
						c1.381,0,2.498-1.114,2.498-2.493C114.898,232.466,113.781,231.353,112.4,231.353z"/>
				</g>
				<g>
					<path fill="#8F887E" d="M120.047,256.787c-1.375,0-2.487,1.116-2.487,2.491c0,1.379,1.112,2.492,2.487,2.492
						c1.376,0,2.493-1.113,2.493-2.492C122.54,257.903,121.423,256.787,120.047,256.787z"/>
				</g>
				<g>
					<path fill="#8F887E" d="M136.586,282.228c-1.37,0-2.493,1.115-2.493,2.492c0,1.376,1.123,2.49,2.493,2.49
						c1.379,0,2.493-1.114,2.493-2.49C139.079,283.343,137.965,282.228,136.586,282.228z"/>
				</g>
				<g>
					<path fill="#8F887E" d="M163.82,307.667c-1.384,0-2.496,1.114-2.496,2.489s1.112,2.494,2.496,2.494
						c1.372,0,2.485-1.119,2.485-2.494S165.192,307.667,163.82,307.667z"/>
				</g>
				<g>
					<path fill="#8F887E" d="M217.092,337.401c-1.374,0-2.493,1.117-2.493,2.492c0,1.379,1.119,2.492,2.493,2.492
						s2.489-1.113,2.489-2.492C219.581,338.52,218.466,337.401,217.092,337.401z"/>
				</g>
				<g>
					<path fill="#8F887E" d="M187.162,322.867c-1.379,0-2.493,1.116-2.493,2.492c0,1.374,1.114,2.489,2.493,2.489
						c1.38,0,2.492-1.115,2.492-2.489C189.654,323.983,188.542,322.867,187.162,322.867z"/>
				</g>
				<g>
					<path fill="#8F887E" d="M328.812,78.723c-1.381,0-2.494,1.114-2.494,2.491c0,1.376,1.113,2.487,2.494,2.487
						c1.371,0,2.492-1.111,2.492-2.487C331.304,79.837,330.183,78.723,328.812,78.723z"/>
				</g>
				<g>
					<path fill="#8F887E" d="M328.812,104.158c-1.381,0-2.494,1.118-2.494,2.493s1.113,2.491,2.494,2.491
						c1.371,0,2.492-1.116,2.492-2.491S330.183,104.158,328.812,104.158z"/>
				</g>
				<g>
					<path fill="#8F887E" d="M328.812,129.597c-1.381,0-2.494,1.111-2.494,2.495c0,1.373,1.113,2.491,2.494,2.491
						c1.371,0,2.492-1.118,2.492-2.491C331.304,130.708,330.183,129.597,328.812,129.597z"/>
				</g>
				<g>
					<path fill="#8F887E" d="M328.812,155.036c-1.381,0-2.494,1.116-2.494,2.49c0,1.378,1.113,2.492,2.494,2.492
						c1.371,0,2.492-1.114,2.492-2.492C331.304,156.152,330.183,155.036,328.812,155.036z"/>
				</g>
				<g>
					<path fill="#8F887E" d="M328.812,180.475c-1.381,0-2.494,1.118-2.494,2.49c0,1.377,1.113,2.493,2.494,2.493
						c1.371,0,2.492-1.116,2.492-2.493C331.304,181.593,330.183,180.475,328.812,180.475z"/>
				</g>
				<g>
					<path fill="#8F887E" d="M326.765,205.913c-1.381,0-2.498,1.111-2.498,2.493c0,1.37,1.117,2.487,2.498,2.487
						c1.369,0,2.488-1.117,2.488-2.487C329.253,207.024,328.134,205.913,326.765,205.913z"/>
				</g>
				<g>
					<path fill="#8F887E" d="M321.776,231.353c-1.375,0-2.492,1.113-2.492,2.488c0,1.378,1.117,2.493,2.492,2.493
						c1.38,0,2.488-1.114,2.488-2.493C324.267,232.466,323.156,231.353,321.776,231.353z"/>
				</g>
				<g>
					<path fill="#8F887E" d="M314.136,256.787c-1.375,0-2.494,1.116-2.494,2.491c0,1.379,1.119,2.492,2.494,2.492
						s2.488-1.113,2.488-2.492C316.624,257.903,315.511,256.787,314.136,256.787z"/>
				</g>
				<g>
					<path fill="#8F887E" d="M297.591,282.228c-1.369,0-2.488,1.115-2.488,2.492c0,1.376,1.119,2.49,2.488,2.49
						c1.377,0,2.494-1.114,2.494-2.49C300.085,283.343,298.968,282.228,297.591,282.228z"/>
				</g>
				<g>
					<path fill="#8F887E" d="M270.366,307.667c-1.379,0-2.494,1.114-2.494,2.489s1.115,2.494,2.494,2.494
						c1.375,0,2.484-1.119,2.484-2.494S271.741,307.667,270.366,307.667z"/>
				</g>
				<g>
					<path fill="#8F887E" d="M247.024,322.867c-1.379,0-2.498,1.116-2.498,2.492c0,1.374,1.119,2.489,2.498,2.489
						c1.375,0,2.488-1.115,2.488-2.489C249.513,323.983,248.399,322.867,247.024,322.867z"/>
				</g>
				<g>
					<path fill="#8F887E" d="M131.415,45.711c-1.375,0-2.497,1.114-2.497,2.49c0,1.377,1.122,2.492,2.497,2.492
						c1.371,0,2.489-1.115,2.489-2.492C133.904,46.825,132.786,45.711,131.415,45.711z"/>
				</g>
				<g>
					<path fill="#8F887E" d="M158.595,39.953c-1.379,0-2.488,1.113-2.488,2.492c0,1.375,1.109,2.492,2.488,2.492
						c1.375,0,2.489-1.117,2.489-2.492C161.084,41.066,159.97,39.953,158.595,39.953z"/>
				</g>
				<g>
					<path fill="#8F887E" d="M187.548,35.745c-1.371,0-2.488,1.118-2.488,2.492c0,1.375,1.117,2.494,2.488,2.494
						c1.379,0,2.493-1.118,2.493-2.494C190.041,36.862,188.927,35.745,187.548,35.745z"/>
				</g>
				<g>
					<path fill="#8F887E" d="M217.092,34.968c-1.374,0-2.493,1.116-2.493,2.493c0,1.376,1.119,2.493,2.493,2.493
						s2.489-1.116,2.489-2.493C219.581,36.083,218.466,34.968,217.092,34.968z"/>
				</g>
				<g>
					<path fill="#8F887E" d="M328.812,58.265c1.371,0,2.492-1.114,2.492-2.493c0-1.371-1.121-2.49-2.492-2.49
						c-1.381,0-2.494,1.119-2.494,2.49C326.317,57.15,327.431,58.265,328.812,58.265z"/>
				</g>
				<g>
					<path fill="#8F887E" d="M302.767,45.711c-1.371,0-2.492,1.114-2.492,2.49c0,1.377,1.121,2.492,2.492,2.492
						c1.381,0,2.493-1.115,2.493-2.492C305.26,46.825,304.146,45.711,302.767,45.711z"/>
				</g>
				<g>
					<circle fill="#8F887E" cx="275.584" cy="42.445" r="2.492"/>
				</g>
				<g>
					<path fill="#8F887E" d="M246.626,40.73c1.375,0,2.498-1.118,2.498-2.494c0-1.374-1.123-2.492-2.498-2.492
						c-1.37,0-2.488,1.118-2.488,2.492C244.138,39.612,245.256,40.73,246.626,40.73z"/>
				</g>
			</g>
		</g>
	</g>
</g>
<g>
	<path fill="#FFFFFF" d="M193.859,206.205c-0.42-0.724-1.195-1.17-2.033-1.17h-1.364v-8.065c0-1.298-1.054-2.351-2.352-2.351h-8.546
		c-1.299,0-2.353,1.053-2.353,2.351v8.065h-23.74c-0.838,0-1.612,0.446-2.033,1.17l-13.465,23.209
		c-0.423,0.728-0.424,1.625-0.005,2.354c0.42,0.729,1.197,1.178,2.039,1.178h4.294v24.344c0,2.882,2.23,5.227,4.97,5.227h3.518
		c1.299,0,2.353-1.054,2.353-2.353v-15.858c0-2.89,2.047-5.242,4.562-5.242c2.516,0,4.562,2.354,4.562,5.242v15.858
		c0,1.299,1.053,2.353,2.352,2.353h28.685c2.74,0,4.969-2.345,4.969-5.227v-24.344h5.019c0.841,0,1.618-0.448,2.038-1.178
		c0.421-0.729,0.418-1.627-0.004-2.354L193.859,206.205z M188.894,248.511c-0.083,0.147-0.509,0.457-1.208,0.457h-10.669
		c-0.696,0-1.123-0.31-1.204-0.455v-8.267c0.081-0.146,0.507-0.454,1.204-0.454h10.669c0.7,0,1.127,0.311,1.208,0.455V248.511z"/>
	<path fill="#D14646" d="M195.302,260.164c1.449,0,2.616-1.288,2.616-2.874v-24.484h-51.264v24.484c0,1.586,1.171,2.874,2.617,2.874
		h3.518v-15.858c0-4.193,3.096-7.595,6.914-7.595c3.818,0,6.914,3.399,6.914,7.595v15.858H195.302z M173.461,240.215
		c0-1.532,1.592-2.774,3.556-2.774h10.669c1.965,0,3.56,1.242,3.56,2.774v8.329c0,1.532-1.595,2.773-3.56,2.773h-10.669
		c-1.964,0-3.556-1.241-3.556-2.773V240.215z"/>
	<polygon fill="#D14646" points="188.11,207.388 188.11,196.97 179.564,196.97 179.564,207.388 153.472,207.388 140.008,230.594 
		205.289,230.594 191.826,207.388 	"/>
</g>
<g>
	<path fill="#FFFFFF" d="M154.095,126.704c0.02,0.002,0.04,0.005,0.06,0.007c0.171,0.021,0.344,0.031,0.516,0.031
		c1.217,0,2.334-0.502,3.14-1.318v10.912c0,0.173,0.008,0.348,0.022,0.522c-0.015,0.174-0.022,0.349-0.022,0.522v17.437
		c0,3.268,2.66,5.926,5.93,5.926c1.511,0,2.891-0.568,3.939-1.501c1.029,0.858,2.354,1.378,3.799,1.378
		c3.269,0,5.928-2.658,5.928-5.926v-17.438c0-0.173-0.008-0.349-0.023-0.523c0.016-0.173,0.023-0.348,0.023-0.522v-10.803
		c0.808,0.825,1.93,1.333,3.154,1.333c0.17,0,0.342-0.01,0.512-0.03c0.021-0.003,0.043-0.005,0.062-0.008
		c1.168-0.151,2.207-0.75,2.93-1.686c0.713-0.927,1.025-2.076,0.88-3.235c-1.137-10.128-1.583-12.931-1.812-13.875
		c-1.329-11.388-1.74-13.753-1.965-14.491c-0.973-3.473-2.876-5.208-4.308-6.054c-1.153-0.683-2.268-0.953-3.061-1.059
		c1.967-1.716,3.215-4.24,3.215-7.051c0-5.159-4.198-9.355-9.355-9.355c-5.16,0-9.357,4.197-9.357,9.355
		c0,2.805,1.242,5.325,3.205,7.042c-0.798,0.098-1.944,0.364-3.134,1.068c-1.431,0.845-3.335,2.581-4.308,6.054
		c-0.224,0.736-0.635,3.097-1.965,14.488c-0.227,0.934-0.673,3.726-1.812,13.876c-0.145,1.16,0.168,2.309,0.882,3.238
		C151.888,125.954,152.927,126.553,154.095,126.704z"/>
	<circle fill="#160F16" cx="167.657" cy="79.257" r="6.881"/>
	<path fill="#160F16" d="M154.415,124.25h0.004c1.059,0.138,2.033-0.611,2.172-1.671c0,0,1.725-11.833,1.779-13.488
		c0.256-1.792,1.248-8.743,1.688-12.304h0.226v24.351c0,0.009,0.002,0.018,0.002,0.027v15.173c0,0.178,0.018,0.352,0.043,0.522
		c-0.025,0.171-0.043,0.345-0.043,0.522v17.437c0,1.906,1.547,3.45,3.453,3.45c1.906,0,3.451-1.544,3.451-3.45v-17.437
		c0-0.177-0.018-0.352-0.044-0.522c0.026-0.171,0.044-0.344,0.044-0.522v-10.365h0.834v10.241c0,0.177,0.018,0.352,0.043,0.522
		c-0.025,0.171-0.043,0.345-0.043,0.523v17.438c0,1.905,1.548,3.449,3.453,3.449c1.906,0,3.451-1.544,3.451-3.449v-17.438
		c0-0.178-0.017-0.352-0.043-0.523c0.026-0.17,0.043-0.345,0.043-0.522v-14.836c0.005-0.08,0.013-0.158,0.013-0.239V96.788h0.23
		c0.439,3.559,1.431,10.503,1.688,12.301c0.052,1.643,1.779,13.491,1.779,13.491c0.138,1.06,1.113,1.809,2.173,1.671h0.004
		c0.512-0.067,0.969-0.332,1.285-0.742c0.314-0.408,0.451-0.917,0.385-1.432c0,0-1.452-12.923-1.778-13.654
		c-0.003-0.008-0.009-0.016-0.012-0.023c-0.309-2.639-1.601-13.615-1.897-14.256c-1.58-5.747-6.026-5.418-6.026-5.418h-2.688
		l0.001,0.001c-0.017,0-0.032-0.001-0.05-0.001h-4.844c-0.015,0-0.029,0.001-0.045,0.001l0.001-0.001h-2.688
		c0,0-4.446-0.328-6.025,5.418c-0.297,0.641-1.591,11.621-1.897,14.258c-0.004,0.008-0.009,0.013-0.013,0.021
		c-0.327,0.731-1.777,13.654-1.777,13.654c-0.067,0.515,0.07,1.023,0.385,1.432C153.446,123.918,153.901,124.182,154.415,124.25z"/>
</g>
<g>
	<path fill="#FFFFFF" d="M232.792,105.418l5.727,2.125c0.17,0.64,0.401,1.299,0.65,2.01l0.007,0.018
		c0.183,0.522,0.372,1.062,0.56,1.649c2.271,7.179,2.49,11.455,2.148,13.933c-1.316,0.971-2.721,2.771-2.377,5.387
		c0.071,0.53,0.153,1.094,0.233,1.64c0.181,1.226,0.479,3.256,0.405,3.907c-0.349,1.027,0.01,2.171,0.896,2.815
		c0.438,0.317,0.953,0.476,1.466,0.476c0.575,0,1.149-0.199,1.614-0.592c0.328-0.279,3.213-2.829,3.446-6.498
		c0.035-0.544,0.123-1.132,0.209-1.701c0.101-0.65,0.193-1.277,0.224-1.886c1.135,0.756,2.642,1.411,4.515,1.958
		c3.553,1.039,8.389,1.693,13.625,1.845c0.114,0.011,1.11,0.138,1.26,0.935c0.223,1.206,1.283,2.13,2.504,2.104
		c1.217-0.031,2.221-0.87,2.394-2.071c0.104-0.388,0.429-1.008,1.433-1.09c5.194-0.319,9.972-1.124,13.455-2.269
		c4.584-1.505,6.888-3.602,6.851-6.233l-0.201-13.29l14.022-4.68c0.992-0.329,1.674-1.249,1.701-2.297
		c0.029-1.048-0.601-2.001-1.574-2.386L270.274,86.31c-0.596-0.235-1.26-0.234-1.853,0.008l-35.696,14.448
		c-0.955,0.387-1.574,1.319-1.558,2.348C231.183,104.146,231.828,105.06,232.792,105.418z"/>
	<path fill="#D14646" d="M241.522,108.729c0.186,0.529,0.388,1.109,0.59,1.74c2.25,7.111,2.918,12.591,1.992,16.314
		c-0.035,0-0.067,0-0.104,0.001c0,0-2.344,0.977-2.021,3.431c0.321,2.455,0.941,5.661,0.527,6.67c0,0,2.4-2.039,2.573-4.757
		c0.153-2.4,1.084-4.81-0.369-5.269c0.927-3.838,0.252-9.403-2.021-16.575c-0.2-0.639-0.406-1.223-0.594-1.758
		c-0.367-1.043-0.67-1.907-0.738-2.59l0.012,0.003l0,0l6.279,2.333l0.246,16.303c0.043,2.88,8.006,5.147,18.394,5.437l-0.001,0.001
		c0,0,3.046,0.195,3.561,2.97c0,0,0.532-2.832,3.674-3.087c0.015,0,0.023-0.003,0.037-0.005c10.254-0.625,18.022-3.116,17.98-5.973
		l-0.229-15.116l15.752-5.256l-37.709-14.917l-35.694,14.449l7.075,2.625C240.75,106.525,241.097,107.515,241.522,108.729z"/>
</g>
<g>
	<g>
		<path fill="#FFFFFF" d="M295.388,235.974c-0.005-1.166-0.009-1.935-0.009-1.935s-0.03-1.34-1.233-2.075l0.133-0.031
			c-0.864-0.576-3.553-6.078-3.553-6.078s-5.119-18.189-5.475-19.28c-0.355-1.089,0.484-1.277-20.686-1.095
			c-16.432,0.145-19.604-0.002-19.744,1.095l-5.098,18.198c-0.809,2.321-3.668,7.059-3.668,7.059v0.005
			c-0.496,0.405-0.863,1.118-0.863,2.354c0,0.636,0,1.306,0,1.985c-1.035,0.722-1.715,1.896-1.715,3.233
			c0,1.333,0.68,2.51,1.715,3.23c0,0.893,0,1.651,0,2.172c0,2.418,0.754,3.633,4.033,4.232v4.781c0,1.91,1.549,3.461,3.459,3.461
			h2.019c1.909,0,3.46-1.551,3.46-3.461v-4.225c4.454,0.051,10.387,0.006,18.286,0.006c6.618,0,11.745-0.002,15.724-0.102v4.321
			c0,1.909,1.551,3.461,3.459,3.461h2.018c1.91,0,3.459-1.552,3.459-3.461v-5.036c3.399-0.705,4.248-2.02,4.271-4.475
			c0.004-0.461,0.006-0.957,0.01-1.473c1.219-0.688,2.039-1.968,2.039-3.435C297.427,237.938,296.604,236.662,295.388,235.974z
			 M242.51,237.209c0,1.539-1.247,2.787-2.786,2.787c-1.537,0-2.785-1.248-2.785-2.787v-2.065c0-1.539,1.248-2.787,2.785-2.787
			c1.539,0,2.786,1.248,2.786,2.787V237.209z M243.114,223.351l4.221-14.582c15.346-0.847,35.449,0,35.449,0l3.354,14.586
			C270.374,223.354,243.114,223.351,243.114,223.351z M293.894,237.209c0,1.539-1.246,2.787-2.785,2.787
			c-1.541,0-2.789-1.248-2.789-2.787v-2.065c0-1.539,1.248-2.787,2.789-2.787c1.539,0,2.785,1.248,2.785,2.787V237.209z"/>
		<path fill="#FFFFFF" d="M287.649,260.853h-2.019c-3.874,0-7.024-3.15-7.024-7.025v-0.693c-3.476,0.038-7.59,0.038-12.157,0.038
			c-2.753,0-5.265,0.007-7.56,0.011c-2.671,0.008-5.046,0.014-7.16,0.008v0.638c0,3.875-3.152,7.026-7.026,7.026h-2.019
			c-3.873,0-7.024-3.151-7.024-7.026v-2.151c-2.737-1.252-4.034-3.484-4.034-6.863v-0.652c-1.096-1.33-1.715-3.004-1.715-4.749
			c0-1.747,0.619-3.421,1.715-4.751v-0.469c0-2.236,0.775-3.676,1.598-4.571c1.03-1.735,2.598-4.556,3.101-5.927l5.017-17.907
			c0.653-3.271,4.359-3.515,5.973-3.619c2.137-0.14,5.602-0.165,11.342-0.206c1.742-0.014,3.693-0.027,5.881-0.046
			c4.538-0.039,8.064-0.062,10.814-0.062c9.643,0,12.234,0,13.286,3.594c0.354,1.091,4.404,15.471,5.435,19.129
			c0.992,2.007,2.141,4.087,2.599,4.712c0.188,0.171,0.358,0.36,0.506,0.563c1.245,1.272,1.742,2.911,1.771,4.106l0.003,0.326
			c1.294,1.378,2.047,3.204,2.047,5.126c0,1.924-0.754,3.753-2.052,5.129c-0.08,3.326-1.453,5.552-4.268,6.845v2.443
			C294.675,257.701,291.522,260.853,287.649,260.853z M285.737,253.722h1.805v-4.932c0-1.689,1.188-3.146,2.842-3.491
			c0.822-0.171,1.221-0.339,1.389-0.427c0.019-0.105,0.039-0.292,0.041-0.588l0.006-0.762c-0.233,0.026-0.471,0.039-0.711,0.039
			c-3.504,0-6.354-2.85-6.354-6.354v-2.066c0-2.57,1.536-4.789,3.738-5.787c-0.3-0.578-0.621-1.222-0.97-1.936
			c-0.096-0.191-0.172-0.393-0.229-0.6c-0.007-0.027-0.015-0.057-0.022-0.086c-0.36,0.121-0.742,0.186-1.131,0.186l-43.025-0.004
			c-0.133,0-0.264-0.008-0.393-0.021c-0.295,0.688-0.662,1.447-1.05,2.203c2.554,0.823,4.405,3.223,4.405,6.045v2.066
			c0,3.504-2.852,6.354-6.354,6.354c-0.328,0-0.649-0.023-0.965-0.072v1.322c0,0.193,0.006,0.34,0.016,0.445
			c0.195,0.073,0.535,0.178,1.095,0.279c1.692,0.311,2.924,1.786,2.924,3.508v4.676h1.806v-4.119c0-0.953,0.381-1.867,1.061-2.537
			c0.678-0.67,1.57-1.056,2.548-1.029c2.886,0.033,6.401,0.027,10.669,0.017c2.3-0.005,4.816-0.011,7.575-0.011
			c6.245,0,11.64,0,15.634-0.1c0.98-0.033,1.893,0.342,2.58,1.012c0.688,0.672,1.075,1.592,1.075,2.554v4.216H285.737z
			 M247.858,219.784l33.8,0.003l-1.737-7.554c-3.417-0.109-9.682-0.274-16.574-0.274c-4.936,0-9.395,0.083-13.295,0.248
			L247.858,219.784z"/>
	</g>
	<path fill="#160F16" d="M295.388,235.974c-0.005-1.166-0.009-1.935-0.009-1.935s-0.03-1.34-1.233-2.075l0.133-0.031
		c-0.864-0.576-3.553-6.078-3.553-6.078s-5.119-18.189-5.475-19.28c-0.355-1.089,0.484-1.277-20.686-1.095
		c-16.432,0.145-19.604-0.002-19.744,1.095l-5.098,18.198c-0.809,2.321-3.668,7.059-3.668,7.059v0.005
		c-0.496,0.405-0.863,1.118-0.863,2.354c0,0.636,0,1.306,0,1.985c-1.035,0.722-1.715,1.896-1.715,3.233
		c0,1.333,0.68,2.51,1.715,3.23c0,0.893,0,1.651,0,2.172c0,2.418,0.754,3.633,4.033,4.232v4.781c0,1.91,1.549,3.461,3.459,3.461
		h2.019c1.909,0,3.46-1.551,3.46-3.461v-4.225c4.454,0.051,10.387,0.006,18.286,0.006c6.618,0,11.745-0.002,15.724-0.102v4.321
		c0,1.909,1.551,3.461,3.459,3.461h2.018c1.91,0,3.459-1.552,3.459-3.461v-5.036c3.399-0.705,4.248-2.02,4.271-4.475
		c0.004-0.461,0.006-0.957,0.01-1.473c1.219-0.688,2.039-1.968,2.039-3.435C297.427,237.938,296.604,236.662,295.388,235.974z
		 M242.51,237.209c0,1.539-1.247,2.787-2.786,2.787c-1.537,0-2.785-1.248-2.785-2.787v-2.065c0-1.539,1.248-2.787,2.785-2.787
		c1.539,0,2.786,1.248,2.786,2.787V237.209z M243.114,223.351l4.221-14.582c15.346-0.847,35.449,0,35.449,0l3.354,14.586
		C270.374,223.354,243.114,223.351,243.114,223.351z M293.894,237.209c0,1.539-1.246,2.787-2.785,2.787
		c-1.541,0-2.789-1.248-2.789-2.787v-2.065c0-1.539,1.248-2.787,2.789-2.787c1.539,0,2.785,1.248,2.785,2.787V237.209z"/>
</g>
</svg>
