<?xml version="1.0" encoding="utf-8"?>
<!-- Generator: Adobe Illustrator 16.0.0, SVG Export Plug-In . SVG Version: 6.00 Build 0)  -->
<!DOCTYPE svg PUBLIC "-//W3C//DTD SVG 1.1//EN" "http://www.w3.org/Graphics/SVG/1.1/DTD/svg11.dtd">
<svg version="1.1" id="Layer_1" focusable="false" xmlns="http://www.w3.org/2000/svg" xmlns:xlink="http://www.w3.org/1999/xlink"
	 x="0px" y="0px" width="490px" height="560px" viewBox="235 0 490 560" enable-background="new 235 0 490 560"
	 xml:space="preserve">
<path d="M480,280c77.328,0,140-62.672,140-140S557.328,0,480,0S340,62.672,340,140S402.672,280,480,280z M578,315h-18.266
	c-24.281,11.156-51.297,17.5-79.734,17.5s-55.344-6.344-79.734-17.5H382c-81.156,0-147,65.844-147,147v45.5
	c0,28.984,23.516,52.5,52.5,52.5h385c28.984,0,52.5-23.516,52.5-52.5V462C725,380.844,659.156,315,578,315z"/>
</svg>
