<?xml version="1.0" encoding="utf-8"?>
<!-- Generator: Adobe Illustrator 16.0.0, SVG Export Plug-In . SVG Version: 6.00 Build 0)  -->
<!DOCTYPE svg PUBLIC "-//W3C//DTD SVG 1.1//EN" "http://www.w3.org/Graphics/SVG/1.1/DTD/svg11.dtd">
<svg version="1.1" id="Layer_1" focusable="false" xmlns="http://www.w3.org/2000/svg" xmlns:xlink="http://www.w3.org/1999/xlink"
	 x="0px" y="0px" width="481px" height="560px" viewBox="230.5 0 481 560" enable-background="new 230.5 0 481 560"
	 xml:space="preserve">
<path d="M376.458,554.494c-142.05-142.05-141.839-372.151,0-513.989c6.232-6.232,15.889-7.254,23.257-2.649l70.894,44.311
	c7.715,4.821,10.869,14.476,7.49,22.923l-35.446,88.617c-3.11,7.777-10.99,12.557-19.325,11.724l-61.042-6.103
	c-23.024,63.723-22.544,133.953,0,196.345l61.043-6.104c8.335-0.833,16.215,3.947,19.326,11.724l35.446,88.618
	c3.378,8.447,0.223,18.101-7.491,22.923l-70.894,44.312C392.292,561.782,382.648,560.684,376.458,554.494z M540.294,104.424
	c12.941,21.926,12.941,49.227,0,71.154c-4.32,7.32-14.337,8.705-20.473,2.823l-6.535-6.263c-4.277-4.1-5.242-10.524-2.473-15.761
	c5.411-10.247,5.411-22.506,0-32.752c-2.771-5.237-1.805-11.662,2.473-15.761l6.535-6.263
	C525.957,95.718,535.974,97.103,540.294,104.424z M640.687,4.688c65.777,78.317,65.726,192.371,0,270.624
	c-4.894,5.827-13.705,6.285-19.198,1.021l-6.341-6.078c-4.988-4.781-5.444-12.61-1.018-17.915c54.345-65.12,54.3-159.614,0-224.681
	c-4.427-5.305-3.972-13.134,1.018-17.915l6.341-6.078C626.981-1.597,635.793-1.139,640.687,4.688z M590.404,53.842
	c39.43,50.665,39.493,121.569,0,172.316c-4.802,6.169-13.888,6.837-19.53,1.426l-6.363-6.102
	c-4.812-4.615-5.467-12.135-1.405-17.425c29.023-37.804,29.021-90.313,0-128.115c-4.062-5.29-3.407-12.809,1.405-17.425l6.363-6.102
	C576.517,47.005,585.603,47.672,590.404,53.842z"/>
</svg>
