<?xml version="1.0" encoding="utf-8"?>
<!-- Generator: Adobe Illustrator 16.0.0, SVG Export Plug-In . SVG Version: 6.00 Build 0)  -->
<!DOCTYPE svg PUBLIC "-//W3C//DTD SVG 1.1//EN" "http://www.w3.org/Graphics/SVG/1.1/DTD/svg11.dtd">
<svg version="1.1" id="Layer_1" focusable="false" xmlns="http://www.w3.org/2000/svg" xmlns:xlink="http://www.w3.org/1999/xlink"
	 x="0px" y="0px" width="560px" height="420px" viewBox="200 70 560 420" enable-background="new 200 70 560 420"
	 xml:space="preserve">
<path d="M749.391,208.688c4.266-3.391,10.609-0.219,10.609,5.141V437.5c0,28.984-23.516,52.5-52.5,52.5h-455
	c-28.984,0-52.5-23.516-52.5-52.5V213.938c0-5.469,6.234-8.531,10.609-5.141c24.5,19.031,56.984,43.203,168.547,124.25
	c23.078,16.844,62.016,52.281,100.844,52.062c39.047,0.328,78.75-35.875,100.953-52.062
	C692.516,252,724.891,227.719,749.391,208.688z M480,350c25.375,0.438,61.906-31.938,80.281-45.281
	c145.141-105.328,156.188-114.516,189.656-140.766c6.344-4.922,10.062-12.578,10.062-20.672V122.5c0-28.984-23.516-52.5-52.5-52.5
	h-455c-28.984,0-52.5,23.516-52.5,52.5v20.781c0,8.094,3.719,15.641,10.062,20.672c33.469,26.141,44.516,35.438,189.656,140.766
	C418.094,318.062,454.625,350.438,480,350L480,350z"/>
</svg>
