<?xml version="1.0" encoding="utf-8"?>
<!-- Generator: Adobe Illustrator 16.0.0, SVG Export Plug-In . SVG Version: 6.00 Build 0)  -->
<!DOCTYPE svg PUBLIC "-//W3C//DTD SVG 1.1//EN" "http://www.w3.org/Graphics/SVG/1.1/DTD/svg11.dtd">
<svg version="1.1" id="Layer_1" xmlns="http://www.w3.org/2000/svg" xmlns:xlink="http://www.w3.org/1999/xlink" x="0px" y="0px"
	 width="235.537px" height="171.333px" viewBox="25.619 9.854 235.537 171.333"
	 enable-background="new 25.619 9.854 235.537 171.333" xml:space="preserve">
<path fill="#79D1C0" stroke="#FFFFFF" stroke-width="2" stroke-miterlimit="10" d="M81.3,121.12c0,0-43.828-2.035-45.319-5.207
	c-2.453-5.215,3.174-8.797,7.547-8.129C47.897,108.452,81.3,121.12,81.3,121.12z"/>
<path fill="#79D1C0" stroke="#FFFFFF" stroke-width="2" stroke-miterlimit="10" d="M69.952,100.802
	c-4.27-1.342-35.803-4.439-39.703,0.814c-3.899,5.254-0.48,9.908,15.144,10.918c15.624,1.012,38.084,12.36,46.684,14.646
	c8.598,2.287,17.454,5.138,20.406,8.342c2.951,3.204,11.279,2.758,17.729,6.152c6.448,3.395,41.007,4.334,54.813,0.734
	c25.252-6.582,28.975-10.75,58.425-14.498c17.289-2.201,30.289-31.436-2.638-32.658c-28.394-1.055-43.836,7.068-59.92-2.274
	s-23.228-24.545-39.372-25.29c-16.147-0.749-34.059-5.151-40.419-6.322c-6.357-1.173-12.456,18.017,12.617,23.272
	c26.68,5.591,16.601,13,1.213,16.843c0,0-5.529,1.688-12.562-1.279"/>
<path fill="#79D1C0" stroke="#FFFFFF" stroke-width="2" stroke-miterlimit="10" d="M116.441,137.637
	c-7.872-4.811-15.991-14.497-22.415-18.061c-6.424-3.562-42.154-23.775-41.814-27.683c0.338-3.905,4.789-16.131,27.113-0.07"/>
<path fill="#79D1C0" stroke="#FFFFFF" stroke-width="2" stroke-miterlimit="10" d="M127.623,140.532
	c0,0-28.896-25.352-32.194-27.404c-3.301-2.053-21.612-13.973-20.266-17.724c1.35-3.751,9.578-12.963,28.826,6.386
	c13.099,13.164,30.67,13.039,42.719,27.096"/>
<g>
	<path d="M52.745,174.881c1.561,0.961,3.839,1.761,6.239,1.761c3.56,0,5.639-1.88,5.639-4.601c0-2.52-1.438-3.959-5.079-5.357
		c-4.398-1.561-7.119-3.84-7.119-7.639c0-4.201,3.479-7.319,8.719-7.319c2.76,0,4.759,0.64,5.959,1.319l-0.959,2.84
		c-0.88-0.479-2.681-1.279-5.119-1.279c-3.68,0-5.08,2.199-5.08,4.039c0,2.52,1.64,3.76,5.359,5.199
		c4.559,1.76,6.879,3.959,6.879,7.919c0,4.159-3.08,7.759-9.438,7.759c-2.6,0-5.438-0.762-6.879-1.721L52.745,174.881z"/>
	<path d="M75.024,170.083c0.08,4.76,3.119,6.719,6.639,6.719c2.521,0,4.04-0.439,5.359-1l0.6,2.521c-1.24,0.56-3.358,1.2-6.438,1.2
		c-5.959,0-9.52-3.92-9.52-9.759s3.439-10.438,9.079-10.438c6.319,0,7.999,5.561,7.999,9.119c0,0.721-0.08,1.279-0.12,1.641H75.024
		V170.083z M85.342,167.563c0.04-2.24-0.919-5.721-4.879-5.721c-3.56,0-5.119,3.279-5.398,5.721H85.342z"/>
	<path d="M93.104,165.004c0-2-0.04-3.641-0.16-5.239h3.119l0.2,3.198h0.079c0.959-1.84,3.199-3.639,6.399-3.639
		c2.679,0,6.839,1.6,6.839,8.238v11.559h-3.52v-11.158c0-3.119-1.16-5.719-4.479-5.719c-2.318,0-4.119,1.639-4.719,3.6
		c-0.16,0.439-0.24,1.039-0.24,1.64v11.638h-3.52L93.104,165.004L93.104,165.004z"/>
	<path d="M119.223,154.325c0.04,1.2-0.841,2.16-2.24,2.16c-1.24,0-2.12-0.96-2.12-2.16c0-1.238,0.92-2.199,2.2-2.199
		C118.383,152.125,119.223,153.086,119.223,154.325z M115.304,179.122v-19.356h3.52v19.356H115.304z"/>
	<path d="M142.18,169.284c0,7.157-4.959,10.276-9.639,10.276c-5.238,0-9.278-3.839-9.278-9.958c0-6.479,4.238-10.277,9.599-10.277
		C138.421,159.325,142.18,163.363,142.18,169.284z M126.823,169.482c0,4.239,2.439,7.438,5.879,7.438c3.359,0,5.879-3.16,5.879-7.52
		c0-3.279-1.64-7.438-5.799-7.438S126.823,165.804,126.823,169.482z"/>
	<path d="M146.623,165.804c0-2.28-0.04-4.239-0.16-6.039h3.079l0.12,3.799h0.16c0.88-2.601,3-4.239,5.359-4.239
		c0.399,0,0.68,0.041,1,0.12v3.319c-0.359-0.08-0.722-0.12-1.199-0.12c-2.48,0-4.24,1.88-4.72,4.521
		c-0.08,0.479-0.16,1.039-0.16,1.64v10.317h-3.479V165.804L146.623,165.804z"/>
	<path d="M187.14,178.241c-1.28,0.641-3.84,1.28-7.119,1.28c-7.6,0-13.317-4.8-13.317-13.638c0-8.439,5.719-14.158,14.078-14.158
		c3.359,0,5.479,0.72,6.398,1.199l-0.841,2.84c-1.319-0.641-3.198-1.119-5.438-1.119c-6.318,0-10.519,4.039-10.519,11.118
		c0,6.599,3.8,10.838,10.357,10.838c2.12,0,4.279-0.44,5.68-1.12L187.14,178.241z"/>
	<path d="M201.82,179.122l-0.279-2.439h-0.12c-1.079,1.52-3.158,2.879-5.919,2.879c-3.92,0-5.919-2.76-5.919-5.559
		c0-4.68,4.159-7.239,11.639-7.199v-0.399c0-1.6-0.439-4.479-4.398-4.479c-1.801,0-3.68,0.562-5.039,1.439l-0.801-2.318
		c1.6-1.041,3.92-1.721,6.358-1.721c5.919,0,7.358,4.039,7.358,7.92v7.237c0,1.681,0.08,3.319,0.32,4.64H201.82L201.82,179.122z
		 M201.301,169.243c-3.84-0.08-8.198,0.6-8.198,4.358c0,2.28,1.521,3.36,3.319,3.36c2.521,0,4.119-1.602,4.681-3.24
		c0.119-0.359,0.198-0.76,0.198-1.119V169.243z"/>
	<path d="M210.383,165.804c0-2.28-0.041-4.239-0.159-6.039h3.078l0.12,3.799h0.16c0.88-2.601,3-4.239,5.359-4.239
		c0.398,0,0.68,0.041,1,0.12v3.319c-0.36-0.08-0.722-0.12-1.2-0.12c-2.479,0-4.239,1.88-4.72,4.521
		c-0.08,0.479-0.16,1.039-0.16,1.64v10.317h-3.479L210.383,165.804L210.383,165.804z"/>
	<path d="M225.022,170.083c0.079,4.76,3.119,6.719,6.639,6.719c2.521,0,4.04-0.439,5.358-1l0.602,2.521
		c-1.24,0.56-3.359,1.2-6.438,1.2c-5.959,0-9.521-3.92-9.521-9.759s3.439-10.438,9.079-10.438c6.319,0,7.999,5.561,7.999,9.119
		c0,0.721-0.08,1.279-0.121,1.641h-13.597V170.083z M235.34,167.563c0.041-2.24-0.919-5.721-4.879-5.721
		c-3.559,0-5.119,3.279-5.397,5.721H235.34z"/>
</g>
<g>
	<path fill="#D14646" d="M99.487,11.959c-10.865-2.818-21.332,4.117-24.396,8.758c-3.062-4.641-13.527-11.576-24.395-8.758
		c-12.521,3.248-12.725,15.965-12.794,18.135c-0.674,19.213,36.64,44.558,37.087,44.346h0.206
		c0.447,0.212,37.763-25.134,37.087-44.347C112.212,27.924,112.007,15.207,99.487,11.959z"/>
</g>
</svg>
