<?xml version="1.0" encoding="utf-8"?>
<!-- Generator: Adobe Illustrator 16.0.0, SVG Export Plug-In . SVG Version: 6.00 Build 0)  -->
<!DOCTYPE svg PUBLIC "-//W3C//DTD SVG 1.1//EN" "http://www.w3.org/Graphics/SVG/1.1/DTD/svg11.dtd">
<svg version="1.1" id="Layer_1" xmlns="http://www.w3.org/2000/svg" xmlns:xlink="http://www.w3.org/1999/xlink" x="0px" y="0px"
	 width="307.229px" height="307.229px" viewBox="9.207 12.014 307.229 307.229"
	 enable-background="new 9.207 12.014 307.229 307.229" xml:space="preserve">
<g>
	<g>
		<circle fill="#FFFFFF" stroke="#FFFFFF" stroke-miterlimit="10" cx="162.821" cy="165.628" r="153.114"/>
		<g>
			<g>
				<path fill="#FFFFFF" stroke="#FFFFFF" stroke-miterlimit="10" d="M162.821,12.515v306.229
					c84.562,0,153.114-68.553,153.114-153.115S247.383,12.515,162.821,12.515z"/>
			</g>
		</g>
	</g>
	<g>
		<path fill="#79D1C0" d="M229.819,228.777c3.668,0,6.846-1.21,9.546-3.602l-46.218-46.221c-1.109,0.795-2.185,1.566-3.199,2.301
			c-3.459,2.55-6.267,4.537-8.422,5.961c-2.154,1.431-5.021,2.886-8.603,4.371c-3.583,1.488-6.92,2.229-10.015,2.229h-0.091h-0.09
			c-3.098,0-6.435-0.74-10.017-2.229c-3.581-1.485-6.449-2.94-8.603-4.371c-2.155-1.424-4.961-3.411-8.421-5.961
			c-0.964-0.707-2.034-1.481-3.19-2.312l-46.227,46.232c2.702,2.392,5.88,3.602,9.548,3.602H229.819z"/>
		<path fill="#79D1C0" d="M92.328,149.851c-3.459-2.305-6.526-4.946-9.196-7.921v70.321l40.737-40.736
			C115.718,165.824,105.219,158.612,92.328,149.851z"/>
		<path fill="#79D1C0" d="M233.405,149.851c-12.4,8.393-22.938,15.617-31.618,21.679l40.72,40.722V141.93
			C239.897,144.845,236.864,147.484,233.405,149.851z"/>
		<path fill="#79D1C0" d="M229.819,102.479h-134c-4.675,0-8.27,1.579-10.787,4.732c-2.52,3.156-3.777,7.102-3.777,11.835
			c0,3.822,1.669,7.964,5.005,12.427c3.338,4.46,6.889,7.964,10.651,10.512c2.063,1.458,8.285,5.783,18.663,12.973
			c5.603,3.882,10.474,7.266,14.663,10.187c3.568,2.487,6.646,4.642,9.188,6.428c0.291,0.204,0.75,0.532,1.359,0.968
			c0.655,0.471,1.486,1.069,2.51,1.81c1.973,1.427,3.611,2.579,4.916,3.46s2.882,1.865,4.734,2.959
			c1.852,1.09,3.597,1.912,5.235,2.458c1.639,0.545,3.155,0.819,4.551,0.819h0.092h0.09c1.396,0,2.914-0.274,4.551-0.819
			c1.641-0.546,3.384-1.366,5.235-2.458c1.851-1.094,3.429-2.079,4.735-2.959c1.305-0.881,2.942-2.033,4.915-3.46
			c1.021-0.739,1.853-1.339,2.51-1.808c0.607-0.438,1.066-0.764,1.359-0.97c1.98-1.379,5.064-3.522,9.213-6.403
			c7.548-5.244,18.662-12.961,33.392-23.186c4.432-3.094,8.131-6.828,11.105-11.196c2.971-4.368,4.456-8.95,4.456-13.745
			c0-4.005-1.442-7.434-4.321-10.288C237.179,103.906,233.765,102.479,229.819,102.479z"/>
	</g>
</g>
</svg>
