<?xml version="1.0" encoding="utf-8"?>
<!-- Generator: Adobe Illustrator 16.0.0, SVG Export Plug-In . SVG Version: 6.00 Build 0)  -->
<!DOCTYPE svg PUBLIC "-//W3C//DTD SVG 1.1//EN" "http://www.w3.org/Graphics/SVG/1.1/DTD/svg11.dtd">
<svg version="1.1" id="Layer_1" xmlns="http://www.w3.org/2000/svg" xmlns:xlink="http://www.w3.org/1999/xlink" x="0px" y="0px"
	 width="166.189px" height="140.67px" viewBox="23.815 19.199 166.189 140.67"
	 enable-background="new 23.815 19.199 166.189 140.67" xml:space="preserve">
<path fill="#00BABA" d="M164.033,19.199H49.787c-14.341,0-25.973,9.845-25.973,21.992v96.699c0,12.146,11.632,21.979,25.973,21.979
	h114.246c14.34,0,25.971-9.834,25.971-21.979V41.191C190.003,29.044,178.373,19.199,164.033,19.199z M164.986,121.125
	c0,7.937-8.131,14.353-18.146,14.353H66.978c-10.027,0-18.145-6.416-18.145-14.353V89.338h22.883l12.381-16.089v49.837L101.24,83.95
	l4.517,21.501l21.308-38.829v58.543l13.127-41.512h24.795L164.986,121.125L164.986,121.125z M164.986,81.208h-26.595l-8.879,28.089
	V57.073l-22.726,41.4l-4.729-22.52l-15.514,35.438V66.061L70.517,86.89H48.833V57.954c0-7.935,8.116-14.363,18.145-14.363h79.861
	c10.016,0,18.146,6.428,18.146,14.363L164.986,81.208L164.986,81.208z"/>
</svg>
