<?xml version="1.0" encoding="utf-8"?>
<!-- Generator: Adobe Illustrator 16.0.0, SVG Export Plug-In . SVG Version: 6.00 Build 0)  -->
<!DOCTYPE svg PUBLIC "-//W3C//DTD SVG 1.1//EN" "http://www.w3.org/Graphics/SVG/1.1/DTD/svg11.dtd">
<svg version="1.1" id="Layer_1" focusable="false" xmlns="http://www.w3.org/2000/svg" xmlns:xlink="http://www.w3.org/1999/xlink"
	 x="0px" y="0px" width="455px" height="560px" viewBox="252.5 0 455 560" enable-background="new 252.5 0 455 560"
	 xml:space="preserve">
<path fill="#00B8B8" d="M479.891,16.625C480.766,21.767,497.5,119.984,497.5,157.5c0,57.203-30.406,98-75.359,114.406
	l14.109,260.422C437.016,547.312,425.094,560,410,560h-70c-14.984,0-27.016-12.578-26.25-27.672l14.109-260.422
	C282.797,255.5,252.5,214.594,252.5,157.5c0-37.625,16.734-135.733,17.609-140.875c3.5-22.203,49.547-22.531,52.391,1.203v154.438
	c1.422,3.719,16.516,3.5,17.5,0c1.531-27.673,8.641-152.25,8.75-155.095c3.609-22.75,48.891-22.75,52.391,0
	c0.22,2.953,7.22,127.422,8.75,155.095c0.984,3.5,16.188,3.719,17.5,0V17.828C430.234-5.797,476.391-5.578,479.891,16.625z
	 M610.266,329.109L593.86,531.562C592.547,546.875,604.688,560,620,560h61.25c14.547,0,26.25-11.703,26.25-26.25V26.25
	C707.5,11.812,695.797,0,681.25,0C591.016,0,439.094,195.234,610.266,329.109L610.266,329.109z"/>
</svg>
