<?xml version="1.0" encoding="utf-8"?>
<!-- Generator: Adobe Illustrator 16.0.0, SVG Export Plug-In . SVG Version: 6.00 Build 0)  -->
<!DOCTYPE svg PUBLIC "-//W3C//DTD SVG 1.1//EN" "http://www.w3.org/Graphics/SVG/1.1/DTD/svg11.dtd">
<svg version="1.1" id="Layer_1" xmlns="http://www.w3.org/2000/svg" xmlns:xlink="http://www.w3.org/1999/xlink" x="0px" y="0px"
	 width="200.518px" height="139.941px" viewBox="14.363 5.406 200.518 139.941"
	 enable-background="new 14.363 5.406 200.518 139.941" xml:space="preserve">
<path fill="#00BABA" d="M207.007,95.686c1.818-1.204,3.084-3.793,3.084-6.818c0-3.023-1.266-5.615-3.084-6.818"/>
<path fill="#00BABA" d="M162.675,23.635h-28.172v-7.182c0-2.826,1.078-5.656,3.232-7.812c2.158-2.158,4.984-3.235,7.813-3.235h6.076
	c2.828,0,5.656,1.077,7.812,3.235c2.155,2.155,3.233,4.985,3.233,7.812v7.182H162.675z"/>
<path fill="#00BABA" d="M207.31,82.269c-0.096-1.081-0.272-2.174-0.52-3.254c-0.424-1.897-1.061-3.712-1.855-5.409l-23.158-49.027
	c-0.891-1.867-2.289-3.521-4.166-4.72c-1.877-1.188-3.966-1.749-6.045-1.749H22.919v104.96h28.257
	c0-13.985,11.335-25.317,25.321-25.317c13.985,0,25.32,11.332,25.32,25.317h28.629c0-13.985,11.337-25.317,25.319-25.317
	c13.985,0,25.321,11.332,25.321,25.317h26.336V84.696C207.425,83.891,207.384,83.085,207.31,82.269z M100.62,69.481H85.892V84.22
	H67.103V69.481H52.375V50.703h14.728V35.976h18.789v14.729h14.729V69.481z M144.231,76.851c-1.135,0-2.271-0.435-3.129-1.293
	c-0.869-0.869-1.293-2.004-1.293-3.128V36.241c0-1.009,0.382-2.025,1.155-2.801c0.772-0.765,1.781-1.154,2.8-1.154h22.596
	c1.635,0,3.276,0.455,4.739,1.421c1.476,0.954,2.545,2.278,3.191,3.773l13.678,31.375c0.742,1.708,0.637,3.742-0.456,5.407
	c-1.103,1.676-2.915,2.587-4.781,2.587L144.231,76.851L144.231,76.851z"/>
<path fill="#00BABA" d="M76.498,100.783c-12.311,0-22.277,9.977-22.277,22.286c0,12.302,9.967,22.277,22.277,22.277
	s22.277-9.979,22.277-22.277C98.775,110.759,88.809,100.783,76.498,100.783z M76.498,132.093c-4.983,0-9.023-4.039-9.023-9.022
	c0-4.982,4.04-9.021,9.023-9.021c4.982,0,9.022,4.039,9.022,9.021C85.521,128.054,81.481,132.093,76.498,132.093z"/>
<path fill="#00BABA" d="M156.085,100.783c-12.312,0-22.276,9.977-22.276,22.286c0,12.302,9.967,22.277,22.276,22.277
	c12.301,0,22.275-9.979,22.275-22.277C178.362,110.759,168.386,100.783,156.085,100.783z M156.085,132.093
	c-4.982,0-9.022-4.039-9.022-9.022c0-4.982,4.04-9.021,9.022-9.021s9.022,4.039,9.022,9.021
	C165.108,128.054,161.069,132.093,156.085,132.093z"/>
<path fill="#00BABA" d="M214.88,118.65c0,2.439-1.979,4.418-4.42,4.418h-19.887c-2.441,0-4.422-1.979-4.422-4.418v-9.206
	c0-2.441,1.979-4.419,4.422-4.419h19.887c2.438,0,4.42,1.978,4.42,4.419V118.65z"/>
<path fill="#00BABA" d="M43.088,118.65c0,2.439-1.978,4.418-4.419,4.418H18.782c-2.438,0-4.42-1.979-4.42-4.418v-9.206
	c0-2.441,1.981-4.419,4.42-4.419h19.887c2.442,0,4.419,1.978,4.419,4.419V118.65z"/>
</svg>
